<?xml version="1.0" encoding="UTF-8"?>
<svg xmlns="http://www.w3.org/2000/svg" xmlns:xlink="http://www.w3.org/1999/xlink" width="50px" height="50px" viewBox="0 0 50 50" version="1.1">
<defs>
<filter id="alpha" filterUnits="objectBoundingBox" x="0%" y="0%" width="100%" height="100%">
  <feColorMatrix type="matrix" in="SourceGraphic" values="0 0 0 0 1 0 0 0 0 1 0 0 0 0 1 0 0 0 1 0"/>
</filter>
<mask id="mask0">
  <g filter="url(#alpha)">
<rect x="0" y="0" width="50" height="50" style="fill:rgb(0%,0%,0%);fill-opacity:0.4;stroke:none;"/>
  </g>
</mask>
<clipPath id="clip1">
  <rect x="0" y="0" width="50" height="50"/>
</clipPath>
<g id="surface5" clip-path="url(#clip1)">
<path style=" stroke:none;fill-rule:nonzero;fill:rgb(16.078432%,17.647059%,19.607843%);fill-opacity:1;" d="M 25 45.855469 C 36.503906 45.855469 45.832031 36.527344 45.832031 25.019531 C 45.832031 13.515625 36.503906 4.1875 25 4.1875 C 13.492188 4.1875 4.167969 13.515625 4.167969 25.019531 C 4.167969 36.527344 13.492188 45.855469 25 45.855469 Z M 25 45.855469 "/>
</g>
</defs>
<g id="surface1">
<use xlink:href="#surface5" mask="url(#mask0)"/>
<path style=" stroke:none;fill-rule:nonzero;fill:rgb(16.078432%,17.647059%,19.607843%);fill-opacity:1;" d="M 25 14.457031 C 20.6875 14.457031 17.1875 17.957031 17.1875 22.269531 C 17.1875 26.5 20.5 29.9375 24.894531 30.0625 C 24.957031 30.0625 25.042969 30.0625 25.082031 30.0625 C 25.125 30.0625 25.1875 30.0625 25.230469 30.0625 C 25.25 30.0625 25.269531 30.0625 25.269531 30.0625 C 29.480469 29.917969 32.792969 26.5 32.8125 22.269531 C 32.8125 17.957031 29.3125 14.457031 25 14.457031 Z M 25 14.457031 "/>
<path style=" stroke:none;fill-rule:nonzero;fill:rgb(16.078432%,17.647059%,19.607843%);fill-opacity:1;" d="M 39.125 40.332031 C 35.417969 43.75 30.460938 45.855469 25 45.855469 C 19.542969 45.855469 14.585938 43.75 10.875 40.332031 C 11.375 38.4375 12.730469 36.707031 14.710938 35.375 C 20.398438 31.582031 29.648438 31.582031 35.292969 35.375 C 37.292969 36.707031 38.625 38.4375 39.125 40.332031 Z M 39.125 40.332031 "/>
</g>
</svg>
